<svg width="24" height="24" viewBox="0 0 24 24" fill="none" xmlns="http://www.w3.org/2000/svg">
<path d="M14.5 5C14.5 5.66304 14.2366 6.29893 13.7678 6.76777C13.299 7.23661 12.6631 7.5 12 7.5C11.337 7.5 10.7011 7.23661 10.2323 6.76777C9.76342 6.29893 9.50003 5.66304 9.50003 5C9.50003 4.33696 9.76342 3.70107 10.2323 3.23223C10.7011 2.76339 11.337 2.5 12 2.5C12.6631 2.5 13.299 2.76339 13.7678 3.23223C14.2366 3.70107 14.5 4.33696 14.5 5ZM15.5 21.5C15.5 21.6326 15.4473 21.7598 15.3536 21.8536C15.2598 21.9473 15.1326 22 15 22H6.42803C6.11762 22 5.81567 21.8988 5.5679 21.7119C5.32012 21.5249 5.14002 21.2623 5.05486 20.9638C4.9697 20.6653 4.98411 20.3472 5.09592 20.0576C5.20774 19.768 5.41086 19.5228 5.67453 19.359L8.31653 17.718C8.5332 17.5834 8.71197 17.3958 8.83595 17.1729C8.95992 16.9499 9.025 16.6991 9.02503 16.444V16H10.212C10.7424 15.9999 11.251 15.7891 11.626 15.414L12 15.0405L12.3735 15.414C12.5593 15.5998 12.7799 15.7473 13.0227 15.8478C13.2655 15.9484 13.5257 16.0001 13.7885 16H15V16.446C15.0001 16.7003 15.0649 16.9504 15.1882 17.1729C15.3115 17.3953 15.4894 17.5827 15.705 17.7175L18.328 19.357C18.5915 19.5215 18.7943 19.7673 18.9056 20.0573C19.017 20.3473 19.0309 20.6656 18.9453 20.9642C18.8597 21.2628 18.6791 21.5254 18.431 21.7123C18.1829 21.8991 17.8807 22.0001 17.57 22H16.415C16.47 21.8435 16.5 21.675 16.5 21.5V21.375C16.5 21.0117 16.368 20.6607 16.1288 20.3874C15.8895 20.114 15.5591 19.9367 15.199 19.8885L8.59153 19.0045C8.46115 18.989 8.32991 19.0254 8.22615 19.1059C8.1224 19.1863 8.05445 19.3044 8.03698 19.4345C8.01952 19.5646 8.05394 19.6964 8.13281 19.8014C8.21168 19.9063 8.32868 19.9761 8.45853 19.9955L15.0665 20.8795C15.1865 20.8956 15.2966 20.9547 15.3763 21.0458C15.4561 21.137 15.5 21.2539 15.5 21.375V21.5ZM13.081 14.707L12.5 14.126V12.255C12.574 12.298 12.644 12.351 12.707 12.414L13.6465 13.354C13.7404 13.4476 13.8675 13.5001 14 13.5H15.5C15.5852 13.5 15.669 13.4781 15.7434 13.4366C15.8178 13.3951 15.8803 13.3353 15.9251 13.2628C15.9699 13.1903 15.9954 13.1076 15.9993 13.0225C16.0031 12.9374 15.9851 12.8527 15.947 12.7765L15.447 11.7765C15.4189 11.7157 15.3789 11.6612 15.3294 11.6161C15.2798 11.5711 15.2217 11.5365 15.1585 11.5143C15.0954 11.4922 15.0284 11.4829 14.9615 11.4872C14.8947 11.4914 14.8294 11.509 14.7695 11.539C14.7096 11.5689 14.6563 11.6106 14.6129 11.6615C14.5694 11.7124 14.5366 11.7716 14.5164 11.8354C14.4962 11.8993 14.489 11.9665 14.4953 12.0332C14.5016 12.0998 14.5212 12.1646 14.553 12.2235L14.691 12.5H14.207L13.414 11.707C13.039 11.3321 12.5304 11.1214 12 11.1214C11.4697 11.1214 10.9611 11.3321 10.586 11.707L9.79303 12.5H9.30903L9.44703 12.2235C9.47881 12.1646 9.49843 12.0998 9.50472 12.0332C9.51102 11.9665 9.50386 11.8993 9.48366 11.8354C9.46347 11.7716 9.43067 11.7124 9.38718 11.6615C9.3437 11.6106 9.29044 11.5689 9.23054 11.539C9.17065 11.509 9.10535 11.4914 9.03853 11.4872C8.9717 11.4829 8.9047 11.4922 8.84151 11.5143C8.77832 11.5365 8.72022 11.5711 8.67067 11.6161C8.62111 11.6612 8.58111 11.7157 8.55303 11.7765L8.05303 12.7765C8.01494 12.8527 7.99697 12.9374 8.0008 13.0225C8.00463 13.1076 8.03015 13.1903 8.07493 13.2628C8.11971 13.3353 8.18226 13.3951 8.25666 13.4366C8.33106 13.4781 8.41483 13.5 8.50003 13.5H10C10.1326 13.5 10.2598 13.4473 10.3535 13.3535L11.293 12.414C11.3565 12.351 11.426 12.298 11.5 12.255V14.126L10.919 14.707C10.7315 14.8945 10.4772 14.9999 10.212 15H7.19303C7.03041 15 6.87025 14.9603 6.72643 14.8845C6.5826 14.8086 6.45944 14.6988 6.36764 14.5646C6.27583 14.4304 6.21813 14.2758 6.19956 14.1142C6.18098 13.9527 6.20208 13.7891 6.26103 13.6375L7.76303 9.775C7.90911 9.39943 8.16523 9.07675 8.49785 8.84923C8.83046 8.62172 9.22405 8.49999 9.62703 8.5H14.373C14.776 8.49999 15.1696 8.62172 15.5022 8.84923C15.8348 9.07675 16.0909 9.39943 16.237 9.775L17.7395 13.6375C17.7985 13.7891 17.8196 13.9529 17.801 14.1145C17.7823 14.2761 17.7246 14.4308 17.6326 14.565C17.5407 14.6992 17.4174 14.809 17.2735 14.8848C17.1295 14.9606 16.9692 15.0002 16.8065 15H13.7875C13.5223 14.9999 13.268 14.8945 13.0805 14.707" fill="#2768A7"/>
</svg>
