<svg width="24" height="24" viewBox="0 0 24 24" fill="none" xmlns="http://www.w3.org/2000/svg">
<path d="M10.3166 3.84049L10.0565 4.30609C9.88654 4.65073 9.53518 4.80001 9.13342 4.80001H8.5219C8.87278 5.28001 9.43438 5.67313 10.0853 5.67313C11.1499 5.67313 12 4.86865 12 3.80689V3.84001H10.4073C10.3675 3.84001 10.3277 3.80065 10.3166 3.84049ZM9.13342 4.32001C9.34318 4.32001 9.52942 4.24705 9.61486 4.06657L9.86926 3.61153C9.96574 3.40273 10.1697 3.36001 10.4073 3.36001H12.4008C12.1401 2.40001 11.2061 1.51297 10.1011 1.51297C8.7931 1.51297 7.73422 2.48161 7.73422 3.79201C7.73422 4.00129 7.75678 4.32001 7.81342 4.32001H9.13342ZM15.6883 14.88C17.4638 14.88 22.1016 14.3362 23.3784 13.1155C22.8038 11.351 20.5387 11.2099 18.4603 12.1085C18.1032 12.2631 17.628 12.3773 17.0841 12.479L16.6593 10.8346C16.8305 10.7471 16.9728 10.6121 17.0691 10.4457C17.1654 10.2793 17.2116 10.0887 17.2022 9.89665C17.1974 9.76568 17.1668 9.63694 17.1121 9.51782C17.0575 9.39869 16.9799 9.29152 16.8837 9.20243C16.7876 9.11335 16.6749 9.0441 16.5519 8.99866C16.429 8.95322 16.2983 8.93247 16.1673 8.93761L15.8553 7.73329C16.0103 7.61824 16.1284 7.46059 16.1953 7.27956C16.2622 7.09853 16.275 6.90194 16.2321 6.71377C16.1729 6.45418 16.0134 6.22857 15.7883 6.0862C15.5633 5.94384 15.2911 5.89629 15.0312 5.95393C15.0312 5.95393 10.6339 5.99329 9.25486 6.36337C7.8787 6.73345 7.41454 9.04609 7.41454 9.04609L6.20542 12.96H0.47998V14.88H15.6883ZM11.7355 8.06593L15.1473 7.92529L15.419 8.97025C14.4965 9.01537 12.8568 9.10033 11.3928 9.18193L11.7355 8.06593ZM10.7841 11.184L15.9317 10.9527L16.3593 12.5909C14.2584 12.8928 11.5344 12.936 10.2461 12.9413L10.7841 11.184ZM20.4029 17.0923C20.4029 17.0923 23.52 17.053 23.52 14.0107C23.52 13.8888 23.508 13.7971 23.4974 13.6843C21.552 15.0903 16.3536 15.36 15.6965 15.36H0.47998V17.7139C0.84814 17.7139 1.22782 17.6285 1.56142 17.4826C2.11385 17.2278 2.71466 17.0948 3.32302 17.0928C3.92302 17.0928 4.52926 17.2287 5.06686 17.4773C5.4235 17.6357 5.79166 17.7144 6.16558 17.7144C6.54526 17.7144 6.91294 17.6357 7.25278 17.4831C7.80522 17.2288 8.40575 17.0959 9.0139 17.0933C9.61827 17.0927 10.2155 17.2239 10.764 17.4778C11.1091 17.6362 11.4883 17.7149 11.8627 17.7149C12.2361 17.7149 12.6043 17.6362 12.9494 17.4835C13.5 17.2294 14.0988 17.0965 14.7053 17.0938C15.3163 17.0938 15.9062 17.2238 16.4549 17.4782C16.8062 17.6367 17.1849 17.7154 17.5536 17.7154L17.6865 17.7096L18.1401 19.4487C17.9443 19.4823 17.7494 19.5058 17.5478 19.5058C17.0637 19.5062 16.585 19.4039 16.1433 19.2058C15.6913 18.9944 15.1985 18.8846 14.6995 18.8842C14.1849 18.8842 13.6915 19.0023 13.2557 19.2058C12.8148 19.4037 12.3371 19.506 11.8538 19.506C11.3706 19.506 10.8928 19.4037 10.452 19.2058C10.0161 19.0023 9.52366 18.8842 9.00814 18.8842C8.49262 18.8842 8.00014 19.0023 7.5643 19.2058C7.12443 19.4032 6.64774 19.5053 6.16558 19.5053C5.68343 19.5053 5.20673 19.4032 4.76686 19.2058C4.3148 18.9945 3.822 18.8848 3.32302 18.8842C2.8258 18.8853 2.33483 18.9951 1.88446 19.2058C1.4424 19.4027 0.963914 19.5046 0.47998 19.5048V21.6C0.97822 21.6 1.45438 21.493 1.88446 21.301C2.33475 21.0899 2.82573 20.9798 3.32302 20.9784C3.83806 20.9784 4.33054 21.0975 4.76686 21.301C5.19166 21.493 5.6731 21.6 6.16558 21.6C6.64777 21.6008 7.12459 21.4989 7.5643 21.301C8.01627 21.0894 8.50909 20.9793 9.00814 20.9784C9.52414 20.9784 10.0161 21.0975 10.452 21.301C10.8768 21.493 11.3582 21.6 11.8565 21.6C12.3547 21.6 12.8309 21.493 13.2557 21.301C13.7076 21.0894 14.2005 20.9793 14.6995 20.9784C15.215 20.9784 15.7075 21.0975 16.1433 21.301C16.5681 21.493 17.0501 21.6 17.5478 21.6C18.0299 21.6002 18.5067 21.4983 18.9465 21.301C19.3989 21.0894 19.892 20.9793 20.3913 20.9784C20.9059 20.9784 21.2995 21.0975 21.7353 21.301C22.1601 21.493 22.56 21.6 23.04 21.6V19.5048C22.56 19.5048 22.1601 19.3968 21.7353 19.2048C21.2995 19.0013 20.8565 18.8832 20.3419 18.8832C19.8506 18.8838 19.3656 18.9936 18.9221 19.2048L18.8318 19.2442L18.4022 17.5728L18.6374 17.4826C19.1912 17.2277 19.7932 17.0946 20.4029 17.0923Z" fill="#2768A7"/>
</svg>
