<svg width="24" height="24" viewBox="0 0 24 24" fill="none" xmlns="http://www.w3.org/2000/svg">
<path d="M6.99998 23L10.075 7.45001C10.175 6.96667 10.4 6.60401 10.75 6.36201C11.1 6.12001 11.4666 5.99934 11.85 6.00001C12.2333 6.00067 12.5876 6.08401 12.913 6.25001C13.2383 6.41601 13.5006 6.66601 13.7 7.00001L14.7 8.60001C15 9.08334 15.3876 9.52101 15.863 9.91301C16.3383 10.305 16.884 10.5923 17.5 10.775V9.00001H19V23H17.5V12.85C16.7 12.6667 15.9583 12.375 15.275 11.975C14.5916 11.575 14 11.0833 13.5 10.5L12.9 13.5L15 15.5V23H13V17L10.9 15L9.09998 23H6.99998ZM7.42498 13.125L5.29998 12.725C5.03331 12.675 4.82498 12.5373 4.67498 12.312C4.52498 12.0867 4.47498 11.8327 4.52498 11.55L5.27498 7.62501C5.37498 7.09167 5.65831 6.67067 6.12498 6.36201C6.59164 6.05334 7.09164 5.94934 7.62498 6.05001L8.77498 6.27501L7.42498 13.125ZM13.5 5.50001C12.95 5.50001 12.4793 5.30434 12.088 4.91301C11.6966 4.52167 11.5006 4.05067 11.5 3.50001C11.4993 2.94934 11.6953 2.47867 12.088 2.08801C12.4806 1.69734 12.9513 1.50134 13.5 1.50001C14.0486 1.49867 14.5196 1.69467 14.913 2.08801C15.3063 2.48134 15.502 2.95201 15.5 3.50001C15.498 4.04801 15.3023 4.51901 14.913 4.91301C14.5236 5.30701 14.0526 5.50267 13.5 5.50001Z" fill="#2768A7"/>
</svg>
