<svg width="24" height="24" viewBox="0 0 24 24" fill="none" xmlns="http://www.w3.org/2000/svg">
<path d="M7 21L9 17M13 21V17L10 14L11 8L14 12L17 14M11 4C11 4.26522 11.1054 4.51957 11.2929 4.70711C11.4804 4.89464 11.7348 5 12 5C12.2652 5 12.5196 4.89464 12.7071 4.70711C12.8946 4.51957 13 4.26522 13 4C13 3.73478 12.8946 3.48043 12.7071 3.29289C12.5196 3.10536 12.2652 3 12 3C11.7348 3 11.4804 3.10536 11.2929 3.29289C11.1054 3.48043 11 3.73478 11 4Z" stroke="#2768A7" stroke-width="2" stroke-linecap="round" stroke-linejoin="round"/>
<path d="M9.99998 14L8.17298 12.782C7.82958 12.5531 7.56538 12.2237 7.4166 11.8388C7.26783 11.4538 7.24176 11.0323 7.34198 10.632L7.62198 9.515C7.73009 9.08249 7.97961 8.6985 8.33092 8.42401C8.68222 8.14953 9.11516 8.00029 9.56098 8H11L15 9L18 7M17 12V21M16 20H18" stroke="#2768A7" stroke-width="2" stroke-linecap="round" stroke-linejoin="round"/>
</svg>
